#N canvas 489 129 450 300 10;
#X obj 159 71 bng 15 250 50 0 empty empty empty 17 7 0 10 -262144 -1
-1;
#X obj 158 232 outlet;
#X obj 159 46 inlet;
#X obj 159 95 symbol \$1;
#X obj 158 130 t b a;
#X obj 158 176 pack s s s;
#X msg 158 207 open \$2/\$3;
#X obj 234 47 loadbang;
#X obj 234 95 externals/ggee/getdir;
#X connect 0 0 3 0;
#X connect 2 0 0 0;
#X connect 3 0 4 0;
#X connect 4 0 5 0;
#X connect 4 1 5 2;
#X connect 5 0 6 0;
#X connect 6 0 1 0;
#X connect 7 0 8 0;
#X connect 8 0 5 1;
