#N canvas 682 257 450 300 10;
#X obj 192 20 loadbang;
#X msg 189 119 \; pd dsp 1;
#X obj 193 168 osc~ 440;
#X obj 202 226 dac~;
#X obj 187 70 delay 1000;
#X connect 0 0 4 0;
#X connect 1 0 2 0;
#X connect 2 0 3 0;
#X connect 2 0 3 1;
#X connect 4 0 1 0;
