#N canvas 0 23 1440 855 10;
#X obj 400 74 notein;
#X obj 400 120 poly 1 1;
#X obj 400 155 pack 0 0 0;
#X obj 400 190 route 1;
#X obj 400 224 unpack 0 0;
#X obj 636 80 loadbang;
#X msg 633 179 \; pd dsp 1;
#X obj 631 130 delay 1000;
#X obj 45 76 keyboard;
#X floatatom 45 159 5 0 0 0 - - -;
#X floatatom 290 155 5 0 0 0 - - -;
#X text 628 37 Setup Only;
#X obj 45 238 synthesizer;
#X text 400 38 Input for Midi-in;
#X text 42 39 Input for GUI keayboard;
#X obj 72 328 vu 15 120 empty empty -1 -8 0 10 -66577 -1 1 0;
#X obj 45 271 dac~;
#X obj 81 271 env~ 128;
#X obj 81 297 - 100;
#X connect 0 0 1 0;
#X connect 0 1 1 1;
#X connect 1 0 2 0;
#X connect 1 1 2 1;
#X connect 1 2 2 2;
#X connect 2 0 3 0;
#X connect 3 0 4 0;
#X connect 4 0 12 0;
#X connect 4 1 12 1;
#X connect 5 0 7 0;
#X connect 7 0 6 0;
#X connect 8 0 9 0;
#X connect 8 1 10 0;
#X connect 9 0 12 0;
#X connect 10 0 12 1;
#X connect 12 0 16 0;
#X connect 12 0 16 1;
#X connect 12 0 17 0;
#X connect 17 0 18 0;
#X connect 18 0 15 1;
