#N canvas 1286 39 565 513 10;
#X obj 74 486 dac~;
#X obj 71 389 phasor~;
#X obj 86 165 notein;
#X obj 68 360 mtof;
#X obj 74 419 *~;
#X obj 169 410 / 127;
#X obj 86 211 poly 1 1;
#X obj 73 247 pack 0 0 0;
#X obj 88 284 route 1;
#X obj 70 317 unpack 0 0;
#X obj 74 448 *~ 1;
#X obj 86 14 loadbang;
#X msg 83 113 \; pd dsp 1;
#X obj 81 64 delay 1000;
#X connect 1 0 4 0;
#X connect 2 0 6 0;
#X connect 2 1 6 1;
#X connect 3 0 1 0;
#X connect 4 0 10 0;
#X connect 5 0 4 1;
#X connect 6 0 7 0;
#X connect 6 1 7 1;
#X connect 6 2 7 2;
#X connect 7 0 8 0;
#X connect 8 0 9 0;
#X connect 9 0 3 0;
#X connect 9 1 5 0;
#X connect 10 0 0 0;
#X connect 10 0 0 1;
#X connect 11 0 13 0;
#X connect 13 0 12 0;
