#N canvas 1286 39 565 386 10;
#X obj 83 339 dac~;
#X obj 80 242 phasor~;
#X obj 95 18 notein;
#X obj 77 213 mtof;
#X obj 83 301 *~;
#X obj 300 192 vsl 15 128 0 1 0 0 empty empty Volume 0 -9 0 10 -262144
-1 -1 1500 1;
#X obj 83 272 *~;
#X obj 178 263 / 127;
#X obj 95 64 poly 1 1;
#X obj 82 100 pack 0 0 0;
#X obj 97 137 route 1;
#X obj 79 170 unpack 0 0;
#X connect 1 0 6 0;
#X connect 2 0 8 0;
#X connect 2 1 8 1;
#X connect 3 0 1 0;
#X connect 4 0 0 0;
#X connect 4 0 0 1;
#X connect 5 0 4 1;
#X connect 6 0 4 0;
#X connect 7 0 6 1;
#X connect 8 0 9 0;
#X connect 8 1 9 1;
#X connect 8 2 9 2;
#X connect 9 0 10 0;
#X connect 10 0 11 0;
#X connect 11 0 3 0;
#X connect 11 1 7 0;
