#N canvas 720 23 720 800 10;
#X floatatom 505 121 5 0 0 0 - - -;
#X obj 505 100 ctlin 1 1;
#X obj 505 140 * 1000;
#X obj 505 187 s attack;
#X floatatom 578 121 5 0 0 0 - - -;
#X obj 578 140 * 1000;
#X obj 578 100 ctlin 2 1;
#X obj 578 162 + 5;
#X obj 578 188 s release;
#X obj 119 248 voice;
#X obj 159 73 notein;
#X obj 159 154 pack 0 0 0;
#X floatatom 89 101 5 0 0 0 - - -;
#X floatatom 241 103 5 0 0 0 - - -;
#X obj 160 248 voice;
#X obj 199 249 voice;
#X obj 237 249 voice;
#X obj 160 133 poly 6 1;
#X obj 159 175 route 1 2 3 4 5 6;
#X obj 277 249 voice;
#X obj 317 249 voice;
#X obj 172 481 vu 15 120 empty empty -1 -8 0 10 -66577 -1 1 0;
#X obj 145 424 dac~;
#X obj 181 424 env~ 128;
#X obj 181 450 - 100;
#X obj 505 161 + 10;
#X connect 0 0 2 0;
#X connect 1 0 0 0;
#X connect 2 0 25 0;
#X connect 4 0 5 0;
#X connect 5 0 7 0;
#X connect 6 0 4 0;
#X connect 7 0 8 0;
#X connect 9 0 22 0;
#X connect 9 0 23 0;
#X connect 10 0 12 0;
#X connect 10 0 17 0;
#X connect 10 1 13 0;
#X connect 10 1 17 1;
#X connect 11 0 18 0;
#X connect 14 0 22 0;
#X connect 14 0 23 0;
#X connect 15 0 22 0;
#X connect 15 0 23 0;
#X connect 16 0 22 0;
#X connect 16 0 23 0;
#X connect 17 0 11 0;
#X connect 17 1 11 1;
#X connect 17 2 11 2;
#X connect 18 0 9 0;
#X connect 18 1 14 0;
#X connect 18 2 15 0;
#X connect 18 3 16 0;
#X connect 18 4 19 0;
#X connect 18 5 20 0;
#X connect 19 0 22 0;
#X connect 19 0 23 0;
#X connect 20 0 22 0;
#X connect 20 0 23 0;
#X connect 23 0 24 0;
#X connect 24 0 21 1;
#X connect 25 0 3 0;
