#N canvas 0 23 720 799 10;
#X floatatom 343 313 5 0 0 0 - - -;
#X floatatom 178 252 5 0 0 0 - - -;
#X obj 178 272 mtof;
#X floatatom 178 293 5 0 0 0 - - -;
#X obj 178 415 osc~;
#X obj 178 449 *~;
#X obj 343 333 / 127;
#X obj 343 381 line~;
#X obj 314 154 sel 0;
#X obj 344 356 pack 0 0;
#X obj 390 320 r attack;
#X obj 244 271 pack 0 0;
#X obj 283 236 r release;
#X obj 179 88 inlet;
#X obj 179 126 unpack;
#X obj 178 470 outlet~;
#X connect 0 0 6 0;
#X connect 1 0 2 0;
#X connect 2 0 3 0;
#X connect 3 0 4 0;
#X connect 4 0 5 0;
#X connect 5 0 15 0;
#X connect 6 0 9 0;
#X connect 7 0 5 1;
#X connect 8 0 11 0;
#X connect 8 1 0 0;
#X connect 9 0 7 0;
#X connect 10 0 9 1;
#X connect 11 0 7 0;
#X connect 12 0 11 1;
#X connect 13 0 14 0;
#X connect 14 0 1 0;
#X connect 14 1 8 0;
